# xmcd
#
# Track frame offsets:
#	150
#	14701
#	29073
#
# Disc length: 579 seconds
#
# Revision: 1
# Processed by: cddbd v1.5.2PL0 Copyright (c) Steve Scherf et al.
# Submitted via: EasyCDDAExtractor 10.0.3.1
#
DISCID=24024103
DTITLE=ROAN - SINGLE
DYEAR=1900
DGENRE=
TTITLE0=Letni Udar - WERSJA SINGIEL
TTITLE1=Letni Udar - WERSJA RADIO
TTITLE2=DATA
EXTD=
EXTT0=
EXTT1=
EXTT2=
PLAYORDER=
